<?xml version="1.0" ?><!DOCTYPE svg  PUBLIC '-//W3C//DTD SVG 1.1//EN'  'http://www.w3.org/Graphics/SVG/1.1/DTD/svg11.dtd'><svg enable-background="new 0 0 128 128" id="Слой_1" version="1.1" viewBox="0 0 128 128" xml:space="preserve" xmlns="http://www.w3.org/2000/svg" xmlns:xlink="http://www.w3.org/1999/xlink"><path d="M101.485,91.794c-2.559,0-4.864,1.086-6.495,2.815L78.793,79.992c7.147-0.085,12.723-5.574,12.723-12.576  c0-7.076-5.782-12.833-12.889-12.833c-0.095,0-0.183,0.013-0.277,0.016l14.693-20.256c1.509,1.163,3.393,1.862,5.441,1.862  c4.931,0,8.941-4.011,8.941-8.941s-4.011-8.941-8.941-8.941s-8.941,4.011-8.941,8.941c0,2.156,0.767,4.136,2.042,5.682  L76.101,54.295c-2.284-3.051-5.519-5.161-9.167-6.026l1.068-5.483c2.446-0.041,4.425-2.037,4.425-4.492c0-2.481-2.019-4.5-4.5-4.5  s-4.5,2.019-4.5,4.5c0,1.808,1.078,3.36,2.619,4.075l-1.083,5.561c-0.594-0.065-1.195-0.103-1.803-0.103  c-2.523,0-4.935,0.612-7.097,1.686l-7.204-16.48c1.291-0.726,2.346-1.853,2.948-3.281c1.463-3.466-0.167-7.475-3.633-8.938  c-0.846-0.357-1.737-0.538-2.649-0.538c-2.75,0-5.219,1.637-6.287,4.171c-0.709,1.679-0.722,3.533-0.035,5.222  c0.686,1.688,1.988,3.008,3.667,3.716c0.847,0.357,1.738,0.538,2.65,0.538c0.503,0,0.991-0.072,1.468-0.177l7.33,16.769  c-3.478,2.298-6.067,5.896-6.975,10.138c-0.146-0.004-0.288-0.005-0.421-0.005c-1.002,0-1.963,0.144-2.864,0.412l-17.541-6.362  c0.022-0.182,0.055-0.361,0.055-0.549c0-2.481-2.019-4.5-4.5-4.5s-4.5,2.019-4.5,4.5s2.019,4.5,4.5,4.5  c1.584,0,2.973-0.827,3.775-2.067l15.647,5.675c-2.527,1.677-4.159,4.516-4.159,7.799c0,5.391,4.391,9.946,9.587,9.946h5.1  L38.278,93.71c-0.377-0.224-0.781-0.414-1.213-0.559c-0.649-0.218-1.323-0.328-2.003-0.328c-2.706,0-5.104,1.725-5.965,4.292  c-0.535,1.594-0.417,3.3,0.331,4.805c0.749,1.505,2.039,2.628,3.632,3.163c0.649,0.218,1.323,0.328,2.003,0.328  c2.706,0,5.104-1.725,5.966-4.292c0.732-2.183,0.19-4.487-1.215-6.116L54.854,80h8.812l2.38,12.219  c-1.542,0.715-2.619,2.267-2.619,4.075c0,2.481,2.019,4.5,4.5,4.5s4.5-2.019,4.5-4.5c0-2.456-1.979-4.451-4.425-4.492L65.703,80  h10.114l17.967,16.214c-0.783,1.328-1.24,2.871-1.24,4.521c0,4.93,4.011,8.941,8.941,8.941s8.941-4.011,8.941-8.941  S106.416,91.794,101.485,91.794z M67.927,35.794c1.379,0,2.5,1.122,2.5,2.5s-1.121,2.5-2.5,2.5s-2.5-1.122-2.5-2.5  S66.548,35.794,67.927,35.794z M43.647,31.541c-1.187-0.5-2.107-1.434-2.592-2.627c-0.485-1.193-0.477-2.503,0.024-3.69  c0.756-1.791,2.501-2.949,4.445-2.949c0.644,0,1.273,0.128,1.872,0.381c2.449,1.034,3.602,3.868,2.568,6.318  c-0.756,1.791-2.501,2.948-4.445,2.948C44.877,31.921,44.247,31.793,43.647,31.541z M22.073,56.647c-1.379,0-2.5-1.122-2.5-2.5  s1.121-2.5,2.5-2.5s2.5,1.122,2.5,2.5S23.452,56.647,22.073,56.647z M39.132,100.482c-0.588,1.751-2.224,2.928-4.069,2.928  c-0.463,0-0.923-0.075-1.366-0.225c-1.087-0.364-1.967-1.131-2.478-2.157c-0.511-1.027-0.591-2.191-0.226-3.278  c0.588-1.751,2.223-2.928,4.068-2.928c0.463,0,0.923,0.075,1.366,0.225C38.672,95.8,39.885,98.238,39.132,100.482z M70.427,96.294  c0,1.378-1.121,2.5-2.5,2.5s-2.5-1.122-2.5-2.5s1.121-2.5,2.5-2.5S70.427,94.916,70.427,96.294z M98.485,20.324  c3.827,0,6.941,3.114,6.941,6.941c0,3.828-3.114,6.941-6.941,6.941s-6.941-3.114-6.941-6.941  C91.544,23.438,94.658,20.324,98.485,20.324z M46.923,78c-4.112,0-7.587-3.639-7.587-7.946c0-4.154,3.333-7.408,7.587-7.408  c0.336,0,0.729,0.007,1.098,0.061c0.544,0.08,1.049-0.294,1.132-0.837c1.057-6.866,7.079-12.043,14.008-12.043  c4.908,0,9.397,2.478,12.009,6.629c0.205,0.324,0.577,0.491,0.952,0.451c0.014,0.001,0.028,0.006,0.042,0.006  c0.019,0,0.036-0.012,0.055-0.013c0.006-0.001,0.011,0,0.017-0.001c0.654-0.147,1.519-0.315,2.394-0.315  c6.004,0,10.889,4.86,10.889,10.833C89.517,73.351,84.733,78,78.628,78H46.923z M101.485,107.676c-3.827,0-6.941-3.114-6.941-6.941  c0-3.828,3.114-6.941,6.941-6.941s6.941,3.114,6.941,6.941C108.427,104.562,105.312,107.676,101.485,107.676z" fill="#323638"/></svg>